# xmcd CD database file
#
# Track frame offsets:
#	150
#	12195
#	19842
#	38200
#	49405
#	64265
#	76112
#	86620
#	99570
#	111612
#	126490
#	133085
#	150075
#	163057
#	177257
#	190242
#	204665
#	214330
#	230137
#	239835
#	253512
#
# Disc length: 3753 seconds
#
# Revision: 0
# Processed by: cddbd v1.5.2PL0 Copyright (c) Steve Scherf et al.
# Submitted via: CDex 1.51
#
DISCID=320ea715
DTITLE=Stony Creek Band - Stony Creek
DYEAR=1900
DGENRE=Country
TTITLE0=San Francisco Bay Blues
TTITLE1=Pick Away
TTITLE2=Weary Blues for Waiting
TTITLE3=Old Joe Clark
TTITLE4=You made it right
TTITLE5=Ragtime Annie
TTITLE6=Country Roads
TTITLE7=Duelling Banjos
TTITLE8=Fly Away
TTITLE9=It´ll Shine when it Shines
TTITLE10=Sally Goodin
TTITLE11=Couldn´t be Better
TTITLE12=The Larks
TTITLE13=A walk in the Irish Rain
TTITLE14=Ye Jacobites
TTITLE15=Whisky in the Jar
TTITLE16=The old Triangle
TTITLE17=Fiddlers Green
TTITLE18=The Flowers of Eddinburgh
TTITLE19=It Probably always will
TTITLE20=Orange Blossom Special
EXTD=
EXTT0=
EXTT1=
EXTT2=
EXTT3=
EXTT4=
EXTT5=
EXTT6=
EXTT7=
EXTT8=
EXTT9=
EXTT10=
EXTT11=
EXTT12=
EXTT13=
EXTT14=
EXTT15=
EXTT16=
EXTT17=
EXTT18=
EXTT19=
EXTT20=
PLAYORDER=
